<?xml version="1.0" encoding="UTF-8" standalone="no"?>
<!-- Created with Inkscape (http://www.inkscape.org/) -->

<svg
   xmlns:dc="http://purl.org/dc/elements/1.1/"
   xmlns:cc="http://creativecommons.org/ns#"
   xmlns:rdf="http://www.w3.org/1999/02/22-rdf-syntax-ns#"
   xmlns:svg="http://www.w3.org/2000/svg"
   xmlns="http://www.w3.org/2000/svg"
   xmlns:sodipodi="http://sodipodi.sourceforge.net/DTD/sodipodi-0.dtd"
   xmlns:inkscape="http://www.inkscape.org/namespaces/inkscape"
   width="200"
   height="230"
   id="svg2"
   version="1.1"
   inkscape:version="0.48.5 r10040"
   sodipodi:docname="drawing.svg">
  <defs
     id="defs4" />
  <sodipodi:namedview
     id="base"
     pagecolor="#ffffff"
     bordercolor="#666666"
     borderopacity="1.0"
     inkscape:pageopacity="0.0"
     inkscape:pageshadow="2"
     inkscape:zoom="0.98994949"
     inkscape:cx="-160.30233"
     inkscape:cy="84.756887"
     inkscape:document-units="px"
     inkscape:current-layer="layer1"
     showgrid="false"
     inkscape:window-width="1536"
     inkscape:window-height="801"
     inkscape:window-x="-8"
     inkscape:window-y="-8"
     inkscape:window-maximized="1"
     fit-margin-top="0"
     fit-margin-left="0"
     fit-margin-right="0"
     fit-margin-bottom="0" />
  <metadata
     id="metadata7">
    <rdf:RDF>
      <cc:Work
         rdf:about="">
        <dc:format>image/svg+xml</dc:format>
        <dc:type
           rdf:resource="http://purl.org/dc/dcmitype/StillImage" />
        <dc:title></dc:title>
      </cc:Work>
    </rdf:RDF>
  </metadata>
  <g
     inkscape:label="Layer 1"
     inkscape:groupmode="layer"
     id="layer1"
     transform="translate(-316.9394,-278.62567)">
    <g
       id="g3010"
       transform="matrix(0.62907212,0,0,0.62520479,156.66081,59.003983)">
      <path
         style="fill:#60db93"
         d="m 254.78571,535.21933 c 0,-183.13224 0.0108,-184.13135 1.98232,-183.50561 2.68731,0.85292 313.1339,180.33467 314.98197,182.10384 1.28571,1.23082 1.28571,1.57272 0,2.80354 -1.84807,1.76917 -312.29466,181.25092 -314.98197,182.10384 -1.97153,0.62574 -1.98232,-0.37337 -1.98232,-183.50561 z"
         id="path3016"
         inkscape:connector-curvature="0" />
      <path
         style="fill:#00e474"
         d="m 254.78571,535.21933 0,-183.93973 3.30894,2.24551 c 1.81992,1.23503 72.91992,42.49574 158,91.69047 85.08009,49.19473 154.69106,89.69642 154.69106,90.00375 0,0.30733 -69.61097,40.80902 -154.69106,90.00375 -85.08008,49.19472 -156.18008,90.45544 -158,91.69047 l -3.30894,2.24551 0,-183.93973 z"
         id="path3014"
         inkscape:connector-curvature="0" />
      <path
         style="fill:#02cb57"
         d="m 254.78571,535.21933 c 0,-181.37222 0.0305,-184.28242 1.91061,-182.5809 1.05083,0.95099 71.81333,42.14778 157.25,91.54841 85.43666,49.40063 155.33939,90.36525 155.33939,91.03249 0,0.66724 -69.90273,41.63186 -155.33939,91.03249 -85.43667,49.40063 -156.19917,90.59742 -157.25,91.54841 -1.88016,1.70152 -1.91061,-1.20868 -1.91061,-182.5809 z m 158.01201,88.20904 c 82.7684,-47.87001 150.48799,-87.56428 150.48799,-88.2095 0,-1.55135 -302.2003,-176.3028 -303.49709,-175.50134 -1.1518,0.71185 -1.45532,349.71605 -0.30514,350.86623 0.38377,0.38377 1.17667,0.51399 1.76201,0.28938 0.58534,-0.22462 68.78384,-39.57476 151.55223,-87.44477 z"
         id="path3012"
         inkscape:connector-curvature="0" />
    </g>
  </g>
</svg>
