<?xml version="1.0" encoding="UTF-8" standalone="no"?>
<!-- Created with Inkscape (http://www.inkscape.org/) -->

<svg
   xmlns:dc="http://purl.org/dc/elements/1.1/"
   xmlns:cc="http://creativecommons.org/ns#"
   xmlns:rdf="http://www.w3.org/1999/02/22-rdf-syntax-ns#"
   xmlns:svg="http://www.w3.org/2000/svg"
   xmlns="http://www.w3.org/2000/svg"
   xmlns:sodipodi="http://sodipodi.sourceforge.net/DTD/sodipodi-0.dtd"
   xmlns:inkscape="http://www.inkscape.org/namespaces/inkscape"
   id="svg3021"
   version="1.1"
   inkscape:version="0.48.5 r10040"
   width="800"
   height="800"
   sodipodi:docname="redo.bmp">
  <metadata
     id="metadata3027">
    <rdf:RDF>
      <cc:Work
         rdf:about="">
        <dc:format>image/svg+xml</dc:format>
        <dc:type
           rdf:resource="http://purl.org/dc/dcmitype/StillImage" />
        <dc:title></dc:title>
      </cc:Work>
    </rdf:RDF>
  </metadata>
  <defs
     id="defs3025" />
  <sodipodi:namedview
     pagecolor="#ffffff"
     bordercolor="#666666"
     borderopacity="1"
     objecttolerance="10"
     gridtolerance="10"
     guidetolerance="10"
     inkscape:pageopacity="0"
     inkscape:pageshadow="2"
     inkscape:window-width="1536"
     inkscape:window-height="801"
     id="namedview3023"
     showgrid="false"
     fit-margin-top="0"
     fit-margin-left="0"
     fit-margin-right="0"
     fit-margin-bottom="0"
     inkscape:zoom="0.15380387"
     inkscape:cx="694.92191"
     inkscape:cy="-27.376599"
     inkscape:window-x="-8"
     inkscape:window-y="-8"
     inkscape:window-maximized="1"
     inkscape:current-layer="svg3021" />
  <path
     style="fill:#5edb67"
     d="M 366.21448,798.55648 C 314.30017,794.01171 268.64957,780.84319 219.7263,756.29986 153.42221,723.03719 99.923174,674.47347 61.204552,612.40193 27.859587,558.94514 7.5979205,500.05981 1.1790392,437.95328 -0.39208971,422.75168 -0.393309,377.20295 1.1771592,361.98371 6.774122,307.73909 21.749214,259.28551 47.97115,210.57649 66.847562,175.51228 86.901162,148.20013 114.31019,120.22551 150.57031,83.217178 190.41334,55.986188 241.47198,33.315926 312.05744,1.9756916 391.27881,-7.5479474 468.72524,5.9965736 c 28.28666,4.9470174 62.75348,15.3411544 88.82397,26.7865894 40.98644,17.993825 75.15046,39.682345 109.07809,69.246637 4.53875,3.95502 8.61813,7.31974 9.06525,7.47714 0.4472,0.1574 17.28605,-15.999632 37.4197,-35.904502 39.40826,-38.960572 40.22612,-39.613638 50.80758,-40.573115 10.39425,-0.942501 24.18582,5.32709 30.47763,13.855021 1.25784,1.704774 3.03294,5.032444 3.94478,7.394814 C 799.89749,58.308878 800,66.285208 800,183.31454 l 0,124.74016 -2.50442,5.34272 c -3.05197,6.51097 -9.23555,12.87628 -15.93733,16.40596 l -5.00612,2.63661 -126.61848,0 -126.61847,0 -4.86537,-2.56524 c -8.91222,-4.69904 -14.6525,-12.46098 -17.68569,-23.91456 -1.67184,-6.31298 -1.13674,-12.72528 1.5862,-19.00815 1.40428,-3.24024 10.75016,-13.16065 40.23787,-42.71141 21.12481,-21.1699 38.40874,-38.92674 38.40874,-39.45952 0,-2.3472 -21.79949,-19.74719 -37.98555,-30.31945 -13.38264,-8.74114 -39.19505,-21.45861 -53.46113,-26.33968 -35.19234,-12.04087 -75.40261,-17.15017 -110.20497,-14.00313 -44.79709,4.05083 -84.7959,17.49529 -122.44047,41.15489 -32.36573,20.34187 -62.74472,50.77696 -82.45115,82.60352 -27.38326,44.22489 -40.95888,90.64886 -41.13989,140.68439 -0.10597,29.29209 3.68269,54.5591 12.10085,80.70182 13.76585,42.75014 34.993,77.74144 66.01013,108.81272 35.03879,35.09981 78.19811,59.3191 126.65229,71.07206 49.31044,11.96071 99.9485,9.57667 148.36314,-6.98507 46.43229,-15.88364 87.6203,-44.41078 118.34455,-81.96657 10.50685,-12.84299 17.09862,-15.67506 26.39063,-11.33841 2.50324,1.16833 16.28664,14.34755 41.42098,39.60556 33.05948,33.22206 37.79895,38.344 38.7289,41.85445 2.12165,8.00972 0.34112,11.60815 -13.56722,27.41957 -23.32645,26.51817 -52.66828,51.09986 -86.52191,72.48551 -12.60125,7.9603 -44.74829,24.21816 -60.25245,30.47177 -58.12722,23.44552 -123.1726,33.25375 -184.76918,27.86142 z"
     id="path3031"
     inkscape:connector-curvature="0" />
</svg>
