<?xml version="1.0" encoding="UTF-8" standalone="no"?>
<!-- Created with Inkscape (http://www.inkscape.org/) -->

<svg
   xmlns:dc="http://purl.org/dc/elements/1.1/"
   xmlns:cc="http://creativecommons.org/ns#"
   xmlns:rdf="http://www.w3.org/1999/02/22-rdf-syntax-ns#"
   xmlns:svg="http://www.w3.org/2000/svg"
   xmlns="http://www.w3.org/2000/svg"
   xmlns:sodipodi="http://sodipodi.sourceforge.net/DTD/sodipodi-0.dtd"
   xmlns:inkscape="http://www.inkscape.org/namespaces/inkscape"
   id="svg2985"
   version="1.1"
   inkscape:version="0.48.5 r10040"
   width="799.27106"
   height="798.43225"
   sodipodi:docname="undo.bmp">
  <metadata
     id="metadata2991">
    <rdf:RDF>
      <cc:Work
         rdf:about="">
        <dc:format>image/svg+xml</dc:format>
        <dc:type
           rdf:resource="http://purl.org/dc/dcmitype/StillImage" />
        <dc:title></dc:title>
      </cc:Work>
    </rdf:RDF>
  </metadata>
  <defs
     id="defs2989" />
  <sodipodi:namedview
     pagecolor="#ffffff"
     bordercolor="#666666"
     borderopacity="1"
     objecttolerance="10"
     gridtolerance="10"
     guidetolerance="10"
     inkscape:pageopacity="0"
     inkscape:pageshadow="2"
     inkscape:window-width="1536"
     inkscape:window-height="801"
     id="namedview2987"
     showgrid="false"
     fit-margin-top="0"
     fit-margin-left="0"
     fit-margin-right="0"
     fit-margin-bottom="0"
     inkscape:zoom="0.21751152"
     inkscape:cx="564.31708"
     inkscape:cy="152.31971"
     inkscape:window-x="-8"
     inkscape:window-y="-8"
     inkscape:window-maximized="1"
     inkscape:current-layer="svg2985" />
  <path
     style="fill:#5edb67"
     d="m 376.84337,797.78915 c -1.92675,-0.18166 -9.13332,-0.80528 -16.01459,-1.38592 -69.66941,-5.87872 -143.10157,-34.20773 -200.82655,-77.47593 -7.62799,-5.7176 -17.92276,-13.92809 -22.87727,-18.24565 -18.56565,-16.17861 -44.41903,-43.71317 -47.181577,-50.24958 -1.923643,-4.55152 -1.691141,-10.75117 0.566346,-15.10159 1.060967,-2.04461 18.739581,-20.47403 39.285811,-40.95416 31.51561,-31.41436 37.9828,-37.40611 41.36043,-38.3195 9.37636,-2.53587 13.39889,-0.46581 23.8951,12.2966 10.7251,13.04066 31.51817,33.15387 43.99989,42.56121 35.93066,27.08057 77.58333,44.47376 123.03192,51.37528 20.61762,3.13084 55.35674,3.13655 75.67158,0.013 67.15366,-10.32714 128.24105,-45.16792 169.8845,-96.89239 15.81658,-19.64539 33.09783,-50.13805 42.26311,-74.57284 11.54622,-30.78244 16.4164,-58.02965 16.47644,-92.18065 0.037,-21.09088 -0.89269,-31.7536 -4.36838,-50.09818 -10.92021,-57.63645 -42.92526,-113.44359 -86.82934,-151.40415 -23.08726,-19.96182 -56.40059,-39.50346 -85.22791,-49.99479 -78.8546,-28.69811 -168.49187,-17.73 -238.15807,29.14127 -12.36971,8.32232 -30.85516,23.18088 -31.75295,25.52296 -0.34925,0.91107 12.9342,15.13188 37.13857,39.7593 43.09621,43.84945 43.05399,43.79312 42.42339,56.60526 -0.66405,13.4917 -7.55956,24.58019 -18.6873,30.05055 l -5.66571,2.78519 -125.114,0 -125.11401,0 -5.505016,-2.59943 C 12.497578,325.11017 5.9080934,318.51376 2.5966961,311.48618 L 0,305.97538 0,180.72993 0,55.484482 2.7926346,49.791726 C 6.1903806,42.865423 10.82074,38.640373 19.470371,34.573824 c 4.686881,-2.203499 8.455645,-3.191204 13.232547,-3.467937 12.086163,-0.700182 13.00454,-0.01643 53.862037,40.101818 19.815855,19.457301 36.642315,35.509955 37.392165,35.672545 0.74984,0.16259 6.04621,-3.81104 11.7697,-8.830292 61.6727,-54.084199 139.10957,-88.2922869 221.59877,-97.89225 17.84047,-2.0762489 63.83531,-2.3374608 81.57433,-0.46327789 47.8149,5.05180009 89.54583,16.92529889 132.88259,37.80842389 45.86948,22.103606 81.97251,47.794864 114.8492,81.727786 35.14788,36.27707 60.69643,75.15115 82.52683,125.57087 32.72373,75.5791 39.75474,165.4958 19.42624,248.4344 -14.04476,57.3014 -44.07168,116.35292 -82.84555,162.92569 -61.42989,73.7858 -157.97296,126.65411 -253.327,138.72516 -24.58719,3.1126 -59.22567,4.44311 -75.56886,2.90289 z"
     id="path3011"
     inkscape:connector-curvature="0" />
</svg>
